PathFileType	4	(X/Y/Z)	./resultDataOpenSim/trcMotMarkerGrf/sub10/qtm-13-07.trc
DataRate	CameraRate	NumFrames	NumMarkers	Units	OrigDataRate	OrigDataStartFrame	OrigNumFrames
250.000000	250.000000	8	24	m	250.000000	62	494
Frame#	Time	L.Toe.Tip			R.Toe.Tip			L.Ankle.Lat			R.Ankle.Lat			L.Ankle.Med			R.Ankle.Med			L.Heel			R.Heel			L.Knee.Lat			R.Knee.Lat			L.Knee.Med			R.Knee.Med			L.Thigh.Upper			R.Thigh.Upper			L.ASIS			R.ASIS			V.Sacral			L.Acromium			R.Acromium			C7			L.Elbow			R.Elbow			L.Wrist.Lat			R.Wrist.Lat
		X1	Y1	Z1	X2	Y2	Z2	X3	Y3	Z3	X4	Y4	Z4	X5	Y5	Z5	X6	Y6	Z6	X7	Y7	Z7	X8	Y8	Z8	X9	Y9	Z9	X10	Y10	Z10	X11	Y11	Z11	X12	Y12	Z12	X13	Y13	Z13	X14	Y14	Z14	X15	Y15	Z15	X16	Y16	Z16	X17	Y17	Z17	X18	Y18	Z18	X19	Y19	Z19	X20	Y20	Z20	X21	Y21	Z21	X22	Y22	Z22	X23	Y23	Z23	X24	Y24	Z24

62	0.244	-1.4331635	0.061919267	-0.073852014	-0.76382977	0.039389703	0.019713915	-1.4152494	0.19338293	-0.13134448	-0.90251667	0.050979358	0.05969608	-1.3910417	0.19248224	-0.051071935	-0.88913037	0.081882716	-0.022286694	-1.449652	0.25028089	-0.089029921	-0.955732	0.027958112	0.012975059	-1.1069216	0.40586011	-0.15922221	-0.88652031	0.44882396	0.11254039	-1.0835563	0.36674065	-0.044718762	-0.89915481	0.46117722	-0.01425252	-1.0579227	0.78192342	-0.18579015	-0.97710388	0.8586345	0.18817071	-0.98741428	0.89772578	-0.13831607	-0.93402465	0.93798434	0.096396347	-1.1589554	0.93022487	0.020125203	-1.0316932	1.3869346	-0.16283724	-1.0478435	1.3749522	0.16640574	-1.1309942	1.4122302	-0.0031556922	-1.0852821	1.0403016	-0.1910271	-1.158824	1.0464635	0.18246852	-0.90793626	0.86848385	-0.19929708	-1.0976254	0.82292895	0.24848692
63	0.248	-1.4236717	0.064311487	-0.075773934	-0.76382218	0.039346641	0.01963007	-1.4045233	0.19585781	-0.13140921	-0.90261726	0.050982106	0.059717527	-1.3788019	0.19456314	-0.051587599	-0.8889928	0.081888888	-0.022292227	-1.4386161	0.25283164	-0.088513879	-0.95579405	0.027931892	0.013011614	-1.0955201	0.40575034	-0.15964189	-0.88439799	0.44897174	0.11281946	-1.0722426	0.36747401	-0.044694226	-0.89735497	0.46129014	-0.014128807	-1.0517401	0.78228012	-0.18557184	-0.97235167	0.85924888	0.18833322	-0.98173392	0.89829906	-0.13810408	-0.92805887	0.93837778	0.096801617	-1.153921	0.93058837	0.019973931	-1.02647	1.3877091	-0.16267683	-1.0420331	1.37569	0.16666361	-1.125704	1.4130817	-0.0026905504	-1.0802349	1.0412897	-0.19086032	-1.152166	1.0468172	0.18300416	-0.90456483	0.86790432	-0.1993403	-1.089675	0.82329476	0.24882101
64	0.252	-1.4134136	0.066456613	-0.077516176	-0.76383175	0.039311353	0.019560543	-1.3937663	0.19824825	-0.13135216	-0.90272238	0.05098479	0.059738882	-1.3669357	0.19653332	-0.051881946	-0.8888648	0.081900347	-0.022297647	-1.427576	0.2551556	-0.088078899	-0.95586135	0.027906474	0.013044906	-1.0839996	0.40583194	-0.15997997	-0.88241985	0.44909207	0.11312701	-1.0608349	0.36833336	-0.044684255	-0.89544423	0.46142779	-0.014000135	-1.0454911	0.78272412	-0.1852153	-0.96765361	0.85982627	0.18848188	-0.97614035	0.89893271	-0.13791644	-0.92245764	0.93880205	0.097174308	-1.148949	0.93099821	0.019724736	-1.0213176	1.3884903	-0.16253405	-1.0361833	1.3764742	0.16688502	-1.1204194	1.4139559	-0.0022393436	-1.075212	1.042276	-0.19069683	-1.1456664	1.0471843	0.18338285	-0.90120417	0.86735373	-0.19940043	-1.0815696	0.82370637	0.24911966
65	0.256	-1.4023383	0.068319989	-0.079170583	-0.76385818	0.039281702	0.019502452	-1.3829122	0.20052061	-0.13120551	-0.90281901	0.05098339	0.059760789	-1.3554643	0.19835644	-0.05192393	-0.88874632	0.081913961	-0.02229624	-1.4165949	0.2572416	-0.087654995	-0.95592779	0.027883742	0.01307644	-1.0723497	0.40612397	-0.1602089	-0.88057778	0.44916592	0.11344789	-1.0490059	0.36932844	-0.044810567	-0.89351684	0.46158093	-0.013836683	-1.0392357	0.78324447	-0.18477658	-0.96300262	0.86037717	0.18861478	-0.97070605	0.89962162	-0.13776223	-0.91734827	0.93927478	0.097503579	-1.1440092	0.93144718	0.019398049	-1.0162101	1.3892809	-0.16238815	-1.0303162	1.3773294	0.16708089	-1.1151512	1.4148396	-0.0018064397	-1.0702141	1.0432711	-0.19052169	-1.1393397	1.0475554	0.18357764	-0.89785492	0.86683874	-0.19947298	-1.0732476	0.82417997	0.24935751
66	0.26	-1.3904689	0.069906777	-0.080780675	-0.76389561	0.039255978	0.019457578	-1.3719019	0.20264878	-0.13100064	-0.90289844	0.050974315	0.059783693	-1.3440562	0.20006642	-0.051824218	-0.8886368	0.081926041	-0.022280927	-1.405792	0.25906001	-0.087106209	-0.95598889	0.027861863	0.013104494	-1.0605345	0.4066478	-0.16033377	-0.87881401	0.44918393	0.11375744	-1.0364788	0.37047443	-0.04518255	-0.89165922	0.46172138	-0.013607995	-1.0330541	0.78382927	-0.18432224	-0.95840087	0.8609065	0.18872555	-0.96543992	0.90035957	-0.13764446	-0.91266953	0.93978376	0.097827474	-1.1390872	0.93192424	0.019017367	-1.0111276	1.39008	-0.16223263	-1.0244565	1.3782595	0.16726117	-1.1099079	1.4157225	-0.0013941159	-1.0652441	1.0442822	-0.19032963	-1.1331151	1.0479191	0.18366831	-0.89453679	0.86636662	-0.19955378	-1.0647479	0.82471794	0.24950743
67	0.264	-1.3778851	0.071245244	-0.08235058	-0.76393547	0.03923675	0.019432328	-1.3607223	0.20461215	-0.13075528	-0.90296113	0.050957297	0.059807345	-1.3325223	0.20168835	-0.051667399	-0.88853493	0.081936317	-0.022247673	-1.3951583	0.26058988	-0.086426176	-0.95604208	0.02784036	0.013123525	-1.0485592	0.40740064	-0.16037993	-0.8770857	0.44915428	0.1140621	-1.0235145	0.37172947	-0.045715353	-0.88989287	0.46182451	-0.013309089	-1.0269946	0.78447527	-0.18386124	-0.95384291	0.86141682	0.18881556	-0.96030785	0.90114507	-0.13755405	-0.90822331	0.94030696	0.098202148	-1.1341907	0.93242756	0.018605562	-1.0060645	1.3908847	-0.16207456	-1.0186519	1.3792292	0.16743232	-1.1046968	1.4165971	-0.0010040797	-1.0603067	1.0453055	-0.19012355	-1.1268455	1.0482614	0.18383616	-0.89126924	0.86594422	-0.19963994	-1.0562115	0.8252982	0.24958401
68	0.268	-1.364692	0.072378476	-0.083864376	-0.76397154	0.039230173	0.019434124	-1.3493828	0.20639313	-0.13048299	-0.90301457	0.050935212	0.059831336	-1.3208594	0.20321255	-0.051483046	-0.88844002	0.081947676	-0.022194312	-1.3846008	0.26182371	-0.085687557	-0.95608644	0.027822555	0.013129216	-1.0365286	0.40834326	-0.16036096	-0.87540807	0.44909391	0.11439743	-1.0110035	0.37297427	-0.046080525	-0.8882147	0.4618814	-0.012960598	-1.0210702	0.78518676	-0.18338002	-0.94931417	0.86191826	0.18889916	-0.95527518	0.90198113	-0.13748373	-0.90377013	0.94084852	0.098661733	-1.1293341	0.93296145	0.018189029	-1.0010237	1.3916941	-0.16192177	-1.0129474	1.3801932	0.16759747	-1.0995229	1.4174597	-0.00063932411	-1.0554064	1.0463317	-0.18991074	-1.1203438	1.0485697	0.18431979	-0.88805403	0.86557676	-0.19972945	-1.0477488	0.82589303	0.24963128
69	0.272	-1.3509834	0.073350073	-0.085305147	-0.76400331	0.039240681	0.019468997	-1.3378834	0.20798354	-0.13019956	-0.90306719	0.050910496	0.059855831	-1.3091262	0.20460393	-0.051270374	-0.88835937	0.081962682	-0.022119288	-1.3740516	0.26276114	-0.084935754	-0.95612363	0.027811395	0.013124137	-1.0246031	0.40941949	-0.16028078	-0.87380539	0.4490122	0.1147787	-0.99957988	0.37412427	-0.046011048	-0.88663428	0.46189054	-0.012588192	-1.0152805	0.78596779	-0.18290973	-0.94480821	0.86242741	0.18899808	-0.95031577	0.90287271	-0.13743606	-0.8991521	0.94143695	0.099214655	-1.124519	0.93352656	0.017801782	-0.99601314	1.3925133	-0.16177427	-1.0073475	1.3811378	0.16775793	-1.0943874	1.418311	-0.00030225551	-1.0505456	1.04736	-0.18969643	-1.1134314	1.0488446	0.18532546	-0.88488226	0.86526403	-0.19982145	-1.0393295	0.82649415	0.24968804
